<?xml version="1.0" encoding="UTF-8" standalone="no"?>
<!DOCTYPE svg PUBLIC "-//W3C//DTD SVG 1.1//EN" "http://www.w3.org/Graphics/SVG/1.1/DTD/svg11.dtd">
<svg width="100%" height="100%" viewBox="0 0 512 297" version="1.1" xmlns="http://www.w3.org/2000/svg" xmlns:xlink="http://www.w3.org/1999/xlink" xml:space="preserve" xmlns:serif="http://www.serif.com/" style="fill-rule:evenodd;clip-rule:evenodd;stroke-linejoin:round;stroke-miterlimit:2;">
    <g id="Artboard1" transform="matrix(1,0,0,1,0,-87.0621)">
        <rect x="0" y="87.062" width="512" height="296.938" style="fill:none;"/>
        <clipPath id="_clip1">
            <rect x="0" y="87.062" width="512" height="296.938"/>
        </clipPath>
        <g clip-path="url(#_clip1)">
            <g transform="matrix(1,0,0,0.711175,0,87.0621)">
                <path d="M0,301.22L0,0L512,0L512,301.22L0,301.22Z" style="fill:rgb(0,94,146);"/>
            </g>
            <g transform="matrix(1,0,0,1,0,0.0621429)">
                <path d="M504.561,301.217L512,301.217L512,384L0,384L0,301.217L296.589,301.201L301.317,300.775L305.212,300.244L308.55,299.607L311.609,298.833L314.392,297.937L316.894,296.943L319.397,295.742L321.623,294.478L323.848,293.003L326.073,291.304L328.299,289.355L330.524,287.136L332.749,284.634L334.974,281.831L337.2,278.721L339.425,275.295L341.65,271.554L344.153,266.978L346.935,261.465L349.995,254.932L353.332,247.346L358.061,236.092L364.459,220.888L367.518,214.074L370.021,208.914L372.247,204.736L374.194,201.455L375.863,198.955L377.532,196.772L378.923,195.213L380.313,193.898L381.705,192.842L383.096,192.049L384.207,191.609L385.32,191.345L386.434,191.256L387.546,191.345L388.658,191.609L389.771,192.049L390.884,192.662L392.274,193.667L393.665,194.93L395.056,196.442L396.724,198.568L398.394,201.017L400.341,204.246L402.288,207.83L404.513,212.307L407.294,218.357L410.632,226.086L423.149,255.543L426.209,262.036L428.993,267.506L431.495,272.039L433.998,276.18L436.223,279.527L438.448,282.56L440.672,285.287L442.897,287.718L445.125,289.867L447.348,291.753L449.573,293.394L451.799,294.814L454.024,296.029L456.528,297.181L459.032,298.132L461.813,298.99L464.873,299.728L468.209,300.331L472.106,300.837L476.503,301.216L504.551,301.217C506.915,294.695 508.751,287.919 510.009,280.942L510.032,280.811L510.103,280.411L510.183,279.952L510.238,279.631L510.291,279.314L510.337,279.038L510.424,278.498L510.462,278.261L510.539,277.764L510.556,277.656L510.564,277.602L510.649,277.036L510.675,276.858L510.764,276.238L510.778,276.142L510.857,275.565L510.875,275.436L510.959,274.795L510.974,274.68L511.05,274.077L511.059,274.001L511.137,273.35L511.153,273.214L511.228,272.555C511.204,272.775 511.179,272.995 511.153,273.214L511.145,273.289L511.137,273.35C511.112,273.567 511.086,273.784 511.059,274.001L511.057,274.022L511.05,274.077L511.007,274.417L510.974,274.68L510.965,274.753L510.959,274.795C510.931,275.009 510.903,275.223 510.875,275.436L510.868,275.484L510.857,275.565L510.824,275.808L510.778,276.142L510.768,276.212L510.764,276.238C510.735,276.445 510.705,276.651 510.675,276.858L510.663,276.94L510.649,277.036L510.625,277.195L510.564,277.602L510.554,277.666L510.539,277.764L510.485,278.116L510.462,278.261L510.441,278.391L510.424,278.498C510.395,278.678 510.366,278.859 510.337,279.038L510.324,279.114L510.291,279.314L510.261,279.494L510.238,279.631L510.203,279.836L510.104,280.41L510.078,280.557L510.032,280.811L510.022,280.867L510.009,280.942C508.752,287.917 506.919,294.691 504.561,301.217ZM511.27,272.182L511.25,272.362L511.301,271.881L511.27,272.182ZM511.352,271.392L511.329,271.62L511.374,271.171L511.352,271.392ZM511.43,270.601L511.403,270.876L511.444,270.447L511.43,270.601ZM511.503,269.808L511.474,270.125L511.511,269.717L511.503,269.808ZM511.571,269.014L511.543,269.346L511.589,268.785L511.571,269.014ZM511.634,268.218L511.63,268.277L511.654,267.949L511.634,268.218ZM511.692,267.421L511.685,267.527L511.708,267.191L511.692,267.421ZM511.746,266.623L511.736,266.773L511.757,266.438L511.746,266.623ZM511.794,265.823L511.782,266.012L511.801,265.688L511.794,265.823ZM511.837,265.022L511.825,265.238L511.841,264.937L511.837,265.022ZM511.875,264.22L511.866,264.415L511.876,264.186L511.875,264.22ZM511.908,263.416L511.907,263.438L511.914,263.257L511.908,263.416ZM511.936,262.611L511.934,262.682L511.942,262.407L511.936,262.611ZM511.959,261.805L511.956,261.922L511.963,261.623L511.959,261.805ZM511.977,260.997L511.973,261.157L511.979,260.854L511.977,260.997ZM511.99,260.188L511.987,260.381L511.991,260.09L511.99,260.188ZM511.997,259.378L511.996,259.575L511.998,259.328L511.997,259.378Z" style="fill:rgb(0,66,102);fill-rule:nonzero;"/>
            </g>
            <g transform="matrix(1,0,0,1,261.143,133.203)">
                <path d="M-261.143,168.06L35.446,168.06L40.174,167.634L44.069,167.103L47.407,166.466L50.466,165.692L53.249,164.796L55.751,163.802L58.254,162.601L60.48,161.337L62.705,159.862L64.93,158.163L67.156,156.214L69.381,153.995L71.606,151.493L73.831,148.69L76.057,145.58L78.282,142.154L80.507,138.413L83.01,133.837L85.792,128.324L88.852,121.791L92.189,114.205L96.918,102.951L103.316,87.747L106.375,80.933L108.878,75.773L111.104,71.595L113.051,68.314L114.72,65.814L116.389,63.631L117.78,62.072L119.17,60.757L120.562,59.701L121.953,58.908L123.064,58.468L124.177,58.204L125.291,58.115L126.403,58.204L127.515,58.468L128.628,58.908L129.741,59.521L131.131,60.526L132.522,61.789L133.913,63.301L135.581,65.427L137.251,67.876L139.198,71.105L141.145,74.689L143.37,79.166L146.151,85.216L149.489,92.945L162.006,122.402L165.066,128.895L167.85,134.365L170.352,138.898L172.855,143.039L175.08,146.386L177.305,149.419L179.529,152.146L181.754,154.577L183.982,156.726L186.205,158.612L188.43,160.253L190.656,161.673L192.881,162.888L195.385,164.04L197.889,164.991L200.67,165.849L203.73,166.587L207.066,167.19L210.963,167.696L215.412,168.079L250.857,168.079" style="fill:none;fill-rule:nonzero;stroke:rgb(255,202,59);stroke-width:10px;"/>
            </g>
        </g>
    </g>
</svg>
