<?xml version="1.0" encoding="UTF-8" standalone="no"?>
<!DOCTYPE svg PUBLIC "-//W3C//DTD SVG 1.1//EN" "http://www.w3.org/Graphics/SVG/1.1/DTD/svg11.dtd">
<svg width="100%" height="100%" viewBox="0 0 251 251" version="1.1" xmlns="http://www.w3.org/2000/svg" xmlns:xlink="http://www.w3.org/1999/xlink" xml:space="preserve" xmlns:serif="http://www.serif.com/" style="fill-rule:evenodd;clip-rule:evenodd;stroke-linejoin:round;stroke-miterlimit:2;">
    <path d="M0.769,139.387C1.872,149.343 4.142,158.949 7.443,168.06L35.446,168.06L40.174,167.634L44.069,167.103L47.407,166.466L50.466,165.692L53.249,164.796L55.751,163.802L58.254,162.601L60.48,161.337L62.705,159.862L64.93,158.163L67.156,156.214L69.381,153.995L71.606,151.493L73.831,148.69L76.057,145.58L78.282,142.154L80.507,138.413L83.01,133.837L85.792,128.324L88.852,121.791L92.189,114.205L96.918,102.951L103.316,87.747L106.375,80.933L108.878,75.773L111.104,71.595L113.051,68.314L114.72,65.814L116.389,63.631L117.78,62.072L119.17,60.757L120.562,59.701L121.953,58.908L123.064,58.468L124.177,58.204L125.291,58.115L126.403,58.204L127.515,58.468L128.628,58.908L129.741,59.521L131.131,60.526L132.522,61.789L133.913,63.301L135.581,65.427L137.251,67.876L139.198,71.105L141.145,74.689L143.37,79.166L146.151,85.216L149.489,92.945L162.006,122.402L165.066,128.895L167.85,134.365L170.352,138.898L172.855,143.039L175.08,146.386L177.305,149.419L179.529,152.146L181.754,154.577L183.982,156.726L186.205,158.612L188.43,160.253L190.656,161.673L192.881,162.888L195.385,164.04L197.889,164.991L200.67,165.849L203.73,166.587L207.066,167.19L210.963,167.696L215.36,168.075L243.408,168.076C246.709,158.969 248.98,149.368 250.085,139.414C243.125,202.112 189.97,250.859 125.429,250.859C60.873,250.859 7.709,202.091 0.769,139.387ZM0.697,138.725L0.751,139.224L0.73,139.041L0.697,138.725ZM250.127,139.041L250.107,139.221L250.158,138.74L250.127,139.041ZM0.625,138.02L0.672,138.484L0.648,138.251L0.625,138.02ZM250.209,138.251L250.186,138.479L250.231,138.03L250.209,138.251ZM0.555,137.299L0.597,137.74L0.57,137.46L0.555,137.299ZM250.287,137.46L250.26,137.735L250.301,137.306L250.287,137.46ZM0.488,136.57L0.527,136.993L0.497,136.667L0.488,136.57ZM250.36,136.667L250.331,136.984L250.368,136.576L250.36,136.667ZM0.427,135.846L0.459,136.227L0.429,135.873L0.409,135.618L0.427,135.846ZM250.428,135.873L250.4,136.205L250.43,135.85L250.446,135.644L250.428,135.873ZM250.491,135.077L250.487,135.136L250.511,134.808L250.491,135.077ZM0.346,134.8L0.37,135.136L0.366,135.077L0.346,134.8ZM250.549,134.28L250.542,134.386L250.565,134.05L250.549,134.28ZM0.292,134.045L0.315,134.386L0.308,134.28L0.292,134.045ZM0.243,133.294L0.264,133.632L0.254,133.482L0.243,133.294ZM250.603,133.482L250.593,133.632L250.614,133.297L250.603,133.482ZM0.199,132.544L0.218,132.872L0.206,132.682L0.199,132.544ZM250.651,132.682L250.639,132.871L250.658,132.547L250.651,132.682ZM0.159,131.794L0.175,132.098L0.163,131.881L0.159,131.794ZM250.694,131.881L250.682,132.097L250.698,131.796L250.694,131.881ZM0.124,131.043L0.135,131.278L0.125,131.079L0.124,131.043ZM250.732,131.079L250.723,131.274L250.733,131.045L250.732,131.079ZM250.765,130.275L250.764,130.297L250.771,130.116L250.765,130.275ZM0.087,130.118L0.093,130.296L0.092,130.275L0.087,130.118ZM250.793,129.47L250.791,129.541L250.799,129.266L250.793,129.47ZM0.058,129.265L0.066,129.54L0.064,129.47L0.058,129.265ZM250.816,128.664L250.813,128.781L250.82,128.482L250.816,128.664ZM0.037,128.481L0.044,128.78L0.041,128.664L0.037,128.481ZM250.834,127.856L250.83,128.016L250.836,127.713L250.834,127.856ZM0.021,127.712L0.027,128.015L0.023,127.856L0.021,127.712ZM250.847,127.047L250.844,127.24L250.848,126.949L250.847,127.047ZM0.009,126.949L0.013,127.24L0.01,127.047L0.009,126.949ZM250.854,126.237L250.853,126.434L250.855,126.187L250.854,126.237ZM0.002,126.187L0.004,126.434L0.003,126.237L0.002,126.187Z" style="fill:rgb(0,66,102);fill-rule:nonzero;"/>
    <path d="M7.443,168.06C2.622,154.755 0,140.397 0,125.426C0,56.155 56.156,0 125.43,0C194.701,0 250.857,56.155 250.857,125.426C250.857,140.404 248.232,154.768 243.408,168.076L215.36,168.075L210.963,167.696L207.066,167.19L203.73,166.587L200.67,165.849L197.889,164.991L195.385,164.04L192.881,162.888L190.656,161.673L188.43,160.253L186.205,158.612L183.982,156.726L181.754,154.577L179.529,152.146L177.305,149.419L175.08,146.386L172.855,143.039L170.352,138.898L167.85,134.365L165.066,128.895L162.006,122.402L149.489,92.945L146.151,85.216L143.37,79.166L141.145,74.689L139.198,71.105L137.251,67.876L135.581,65.427L133.913,63.301L132.522,61.789L131.131,60.526L129.741,59.521L128.628,58.908L127.515,58.468L126.403,58.204L125.291,58.115L124.177,58.204L123.064,58.468L121.953,58.908L120.562,59.701L119.17,60.757L117.78,62.072L116.389,63.631L114.72,65.814L113.051,68.314L111.104,71.595L108.878,75.773L106.375,80.933L103.316,87.747L96.918,102.951L92.189,114.205L88.852,121.791L85.792,128.324L83.01,133.837L80.507,138.413L78.282,142.154L76.057,145.58L73.831,148.69L71.606,151.493L69.381,153.995L67.156,156.214L64.93,158.163L62.705,159.862L60.48,161.337L58.254,162.601L55.751,163.802L53.249,164.796L50.466,165.692L47.407,166.466L44.069,167.103L40.174,167.634L35.446,168.06L7.443,168.06Z" style="fill:rgb(0,94,146);"/>
    <path d="M4.987,160.56L35.109,160.56L39.33,160.18L42.859,159.699L45.783,159.141L48.395,158.48L50.712,157.734L52.741,156.928L54.776,155.951L56.552,154.943L58.352,153.749L60.179,152.355L62.032,150.732L63.926,148.843L65.862,146.666L67.841,144.173L69.859,141.353L71.912,138.193L73.992,134.695L76.37,130.347L79.047,125.042L81.987,118.771C81.987,118.771 85.324,111.185 85.275,111.3L90.004,100.046L96.403,84.838C96.426,84.784 96.45,84.729 96.474,84.675L99.533,77.861C99.563,77.794 99.595,77.726 99.627,77.66L102.13,72.5C102.171,72.414 102.214,72.33 102.259,72.246L104.485,68.068C104.539,67.967 104.595,67.867 104.654,67.768L106.601,64.487C106.669,64.372 106.74,64.26 106.813,64.15L108.482,61.65C108.571,61.516 108.665,61.386 108.762,61.259L110.431,59.076C110.546,58.925 110.667,58.779 110.793,58.638L112.184,57.079C112.325,56.921 112.472,56.769 112.626,56.624L114.016,55.309C114.213,55.122 114.421,54.946 114.637,54.782L116.029,53.726C116.29,53.528 116.563,53.348 116.848,53.185L118.239,52.392C118.545,52.218 118.863,52.065 119.191,51.935L120.302,51.495C120.638,51.362 120.982,51.254 121.333,51.17L122.446,50.906C122.819,50.818 123.198,50.758 123.58,50.728L124.694,50.639C125.092,50.607 125.491,50.607 125.889,50.639L127.001,50.728C127.383,50.758 127.763,50.818 128.135,50.907L129.247,51.171C129.596,51.254 129.939,51.361 130.272,51.493L131.385,51.933C131.681,52.05 131.968,52.185 132.246,52.339L133.359,52.952C133.628,53.099 133.887,53.264 134.135,53.443L135.525,54.448C135.751,54.611 135.967,54.786 136.173,54.973L137.564,56.236C137.73,56.387 137.889,56.546 138.042,56.711L139.433,58.223C139.565,58.368 139.693,58.517 139.814,58.672L141.482,60.798C141.585,60.929 141.683,61.064 141.777,61.202L143.447,63.651C143.526,63.766 143.602,63.884 143.674,64.003L145.621,67.232C145.679,67.329 145.735,67.426 145.788,67.525L147.735,71.109C147.779,71.189 147.821,71.27 147.861,71.351L150.086,75.828C150.12,75.896 150.153,75.965 150.185,76.034L152.966,82.084C152.99,82.136 153.013,82.189 153.036,82.242L156.392,90.012L168.852,119.336L171.802,125.595L174.477,130.851L176.847,135.145L179.19,139.021L181.23,142.09L183.239,144.828L185.206,147.24L187.129,149.341L189.017,151.162L190.862,152.728L192.677,154.066L194.474,155.213L196.25,156.182L198.287,157.12L200.328,157.895L202.657,158.613L205.278,159.245L208.217,159.776L211.768,160.238L215.734,160.579L245.862,160.579C244.363,165.723 242.543,170.731 240.426,175.579L215.412,175.579C215.197,175.579 214.983,175.57 214.769,175.551L210.32,175.168C210.212,175.159 210.104,175.147 209.997,175.134L206.1,174.628C205.977,174.612 205.854,174.593 205.732,174.57L202.396,173.967C202.254,173.942 202.112,173.912 201.972,173.878L198.912,173.14C198.759,173.103 198.608,173.062 198.459,173.016L195.678,172.158C195.526,172.111 195.375,172.059 195.226,172.002L192.722,171.051C192.563,170.991 192.405,170.925 192.25,170.854L189.746,169.702C189.59,169.63 189.437,169.553 189.287,169.471L187.062,168.256C186.912,168.174 186.766,168.087 186.622,167.996L184.396,166.576C184.254,166.485 184.114,166.389 183.978,166.289L181.753,164.648C181.616,164.547 181.483,164.441 181.353,164.331L179.13,162.445C179.008,162.342 178.89,162.235 178.775,162.124L176.547,159.975C176.435,159.867 176.327,159.756 176.221,159.641L173.996,157.21C173.9,157.105 173.807,156.997 173.717,156.886L171.493,154.159C171.412,154.06 171.333,153.959 171.258,153.855L169.033,150.822C168.964,150.729 168.898,150.634 168.834,150.538L166.609,147.191C166.55,147.102 166.492,147.011 166.436,146.919L163.933,142.778C163.883,142.693 163.833,142.608 163.786,142.522L161.284,137.989C161.243,137.916 161.204,137.842 161.166,137.767L158.382,132.297C158.347,132.229 158.314,132.161 158.282,132.092L155.222,125.599C155.181,125.512 155.141,125.424 155.103,125.335C155.103,125.335 142.586,95.878 142.604,95.919C142.604,95.919 139.266,88.19 139.336,88.348L136.603,82.402L134.489,78.149L132.688,74.833L130.936,71.928L129.526,69.859L128.194,68.162L127.231,67.115L126.398,66.359L125.72,65.868L125.427,65.707L125.29,65.653L125.207,65.686L124.703,65.973L124.028,66.486L123.165,67.302L122.174,68.412L120.824,70.178L119.399,72.313L117.642,75.274L115.564,79.174L113.171,84.107L110.229,90.656C110.229,90.656 103.831,105.86 103.832,105.856L99.103,117.11C99.087,117.149 99.071,117.187 99.054,117.225L95.717,124.811C95.693,124.865 95.669,124.919 95.644,124.972L92.584,131.505C92.553,131.572 92.521,131.637 92.488,131.703L89.706,137.216C89.668,137.29 89.63,137.363 89.59,137.436L87.087,142.012C87.044,142.091 86.999,142.169 86.953,142.247L84.728,145.988C84.678,146.073 84.626,146.156 84.572,146.239L82.347,149.665C82.285,149.76 82.222,149.853 82.156,149.945L79.93,153.055C79.857,153.156 79.783,153.256 79.705,153.353L77.48,156.156C77.393,156.265 77.303,156.373 77.21,156.477L74.985,158.979C74.886,159.091 74.783,159.2 74.677,159.305L72.452,161.524C72.337,161.639 72.219,161.75 72.097,161.857L69.871,163.806C69.745,163.916 69.615,164.022 69.482,164.124L67.257,165.823C67.124,165.924 66.988,166.021 66.849,166.113L64.624,167.588C64.48,167.683 64.333,167.774 64.183,167.859L61.957,169.123C61.807,169.208 61.654,169.288 61.499,169.363L58.996,170.564C58.839,170.639 58.681,170.708 58.52,170.772L56.018,171.766C55.863,171.828 55.706,171.884 55.547,171.935L52.764,172.831C52.613,172.88 52.46,172.924 52.306,172.963L49.247,173.737C49.103,173.773 48.958,173.805 48.813,173.833L45.475,174.47C45.345,174.495 45.214,174.516 45.082,174.534L41.187,175.065C41.074,175.081 40.961,175.094 40.847,175.104L36.119,175.53C35.895,175.55 35.671,175.56 35.446,175.56L10.419,175.56C8.303,170.711 6.485,165.704 4.987,160.56ZM7.246,167.511C7.278,167.602 7.311,167.694 7.344,167.785C7.377,167.877 7.41,167.968 7.443,168.06L7.246,167.511ZM7.137,167.204L7.188,167.349L7.027,166.894L7.137,167.204ZM6.807,166.261C6.837,166.349 6.867,166.436 6.898,166.524C6.928,166.611 6.959,166.699 6.989,166.786L6.807,166.261ZM6.688,165.916L6.741,166.069L6.609,165.683L6.688,165.916ZM6.38,165.002C6.408,165.086 6.436,165.17 6.464,165.253C6.492,165.337 6.52,165.421 6.549,165.504L6.38,165.002ZM6.254,164.62L6.306,164.779L6.197,164.447L6.254,164.62ZM5.966,163.735C5.991,163.815 6.017,163.895 6.043,163.975C6.069,164.055 6.095,164.135 6.121,164.214L5.966,163.735ZM5.833,163.319L5.884,163.478L5.793,163.193L5.833,163.319ZM5.696,162.884L5.706,162.917L5.601,162.578L5.696,162.884ZM5.426,162.011L5.473,162.163L5.4,161.925L5.426,162.011ZM5.294,161.574L5.305,161.611L5.242,161.403L5.294,161.574ZM5.033,160.698L5.072,160.828L5.018,160.646L5.033,160.698Z" style="fill:rgb(255,190,61);"/>
</svg>
